<mxfile host="65bd71144e" modified="2021-01-30T22:15:31.356Z" agent="5.0 (Macintosh; Intel Mac OS X 10_15_6) AppleWebKit/537.36 (KHTML, like Gecko) Code/1.51.1 Chrome/83.0.4103.122 Electron/9.3.3 Safari/537.36" etag="eLKdQ60fxANRUjMjfpv4" version="13.10.0" type="embed">
    <diagram id="3rIZFXBH6a5UeNMc0Q2q" name="Page-1">
        <mxGraphModel dx="201" dy="419" grid="1" gridSize="10" guides="1" tooltips="1" connect="1" arrows="1" fold="1" page="1" pageScale="1" pageWidth="850" pageHeight="1100" math="0" shadow="0">
            <root>
                <mxCell id="0"/>
                <mxCell id="1" parent="0"/>
                <mxCell id="4" value="" style="rounded=1;whiteSpace=wrap;html=1;fontStyle=1" parent="1" vertex="1">
                    <mxGeometry x="320" y="80" width="160" height="220" as="geometry"/>
                </mxCell>
                <mxCell id="35" value="inventory: Object (Ref of Vendors Inventory Items the User selected, Cost of each object)&lt;br&gt;&lt;br&gt;Vendor: Ref to the Vendor's ID&lt;br&gt;&lt;br&gt;User: The User who placed the order&lt;br&gt;&lt;br&gt;Estimated arrival time: Each vendor has their own x amount of days from when its placed&lt;br&gt;&lt;br&gt;Price: Total Price of the order&lt;br&gt;&lt;br&gt;Delivery Status - Enum&lt;br&gt;&lt;br&gt;&lt;br&gt;&lt;br&gt;&amp;nbsp;" style="text;html=1;strokeColor=none;fillColor=none;align=center;verticalAlign=middle;whiteSpace=wrap;rounded=0;fontSize=10;" parent="1" vertex="1">
                    <mxGeometry x="325" y="140" width="150" height="160" as="geometry"/>
                </mxCell>
                <mxCell id="18" style="edgeStyle=orthogonalEdgeStyle;rounded=0;orthogonalLoop=1;jettySize=auto;html=1;entryX=0;entryY=0.5;entryDx=0;entryDy=0;fontSize=10;exitX=1;exitY=0.465;exitDx=0;exitDy=0;exitPerimeter=0;" parent="1" source="10" target="17" edge="1">
                    <mxGeometry relative="1" as="geometry"/>
                </mxCell>
                <mxCell id="10" value="" style="rounded=1;whiteSpace=wrap;html=1;" parent="1" vertex="1">
                    <mxGeometry x="320" y="434" width="160" height="200" as="geometry"/>
                </mxCell>
                <mxCell id="7" style="edgeStyle=orthogonalEdgeStyle;rounded=0;orthogonalLoop=1;jettySize=auto;html=1;entryX=0;entryY=0.5;entryDx=0;entryDy=0;exitX=0.993;exitY=0.292;exitDx=0;exitDy=0;exitPerimeter=0;" parent="1" source="2" target="4" edge="1">
                    <mxGeometry relative="1" as="geometry"/>
                </mxCell>
                <mxCell id="2" value="&lt;br&gt;&lt;br&gt;" style="rounded=1;whiteSpace=wrap;html=1;" parent="1" vertex="1">
                    <mxGeometry x="80" y="80" width="150" height="380" as="geometry"/>
                </mxCell>
                <mxCell id="3" value="User" style="text;html=1;strokeColor=none;fillColor=none;align=center;verticalAlign=middle;whiteSpace=wrap;rounded=0;" parent="1" vertex="1">
                    <mxGeometry x="135" y="90" width="40" height="20" as="geometry"/>
                </mxCell>
                <mxCell id="11" value="" style="edgeStyle=orthogonalEdgeStyle;rounded=0;orthogonalLoop=1;jettySize=auto;html=1;" parent="1" source="4" target="10" edge="1">
                    <mxGeometry relative="1" as="geometry"/>
                </mxCell>
                <mxCell id="8" value="Vendor" style="text;html=1;strokeColor=none;fillColor=none;align=center;verticalAlign=middle;whiteSpace=wrap;rounded=0;" parent="1" vertex="1">
                    <mxGeometry x="380" y="440" width="40" height="20" as="geometry"/>
                </mxCell>
                <mxCell id="9" value="&lt;font style=&quot;font-size: 9px&quot;&gt;one to many&lt;/font&gt;" style="text;html=1;strokeColor=none;fillColor=none;align=center;verticalAlign=middle;whiteSpace=wrap;rounded=0;" parent="1" vertex="1">
                    <mxGeometry x="230" y="170" width="80" height="20" as="geometry"/>
                </mxCell>
                <mxCell id="14" value="Order" style="text;html=1;strokeColor=none;fillColor=none;align=center;verticalAlign=middle;whiteSpace=wrap;rounded=0;" parent="1" vertex="1">
                    <mxGeometry x="380" y="80" width="40" height="20" as="geometry"/>
                </mxCell>
                <mxCell id="16" value="&lt;i&gt;one to one&lt;/i&gt;" style="text;html=1;strokeColor=none;fillColor=none;align=center;verticalAlign=middle;whiteSpace=wrap;rounded=0;rotation=90;fontSize=10;" parent="1" vertex="1">
                    <mxGeometry x="380" y="350" width="65" height="20" as="geometry"/>
                </mxCell>
                <mxCell id="17" value="" style="rounded=1;whiteSpace=wrap;html=1;fontSize=10;" parent="1" vertex="1">
                    <mxGeometry x="570" y="414" width="150" height="220" as="geometry"/>
                </mxCell>
                <mxCell id="19" value="&lt;font style=&quot;font-size: 12px&quot;&gt;Inventory&lt;/font&gt;" style="text;html=1;strokeColor=none;fillColor=none;align=center;verticalAlign=middle;whiteSpace=wrap;rounded=0;fontSize=10;" parent="1" vertex="1">
                    <mxGeometry x="625" y="430" width="40" height="20" as="geometry"/>
                </mxCell>
                <mxCell id="20" value="places an" style="text;html=1;strokeColor=none;fillColor=none;align=center;verticalAlign=middle;whiteSpace=wrap;rounded=0;fontSize=10;fontStyle=4" parent="1" vertex="1">
                    <mxGeometry x="240" y="70" width="60" height="20" as="geometry"/>
                </mxCell>
                <mxCell id="21" value="through a vendor" style="text;html=1;strokeColor=none;fillColor=none;align=center;verticalAlign=middle;whiteSpace=wrap;rounded=0;fontSize=10;rotation=-90;fontStyle=4" parent="1" vertex="1">
                    <mxGeometry x="285" y="342.5" width="95" height="35" as="geometry"/>
                </mxCell>
                <mxCell id="22" value="with a set list of inventory options" style="text;html=1;strokeColor=none;fillColor=none;align=center;verticalAlign=middle;whiteSpace=wrap;rounded=0;fontSize=10;fontStyle=4" parent="1" vertex="1">
                    <mxGeometry x="480" y="430" width="80" height="20" as="geometry"/>
                </mxCell>
                <mxCell id="23" value="User" style="shape=umlActor;verticalLabelPosition=bottom;verticalAlign=top;html=1;outlineConnect=0;fontSize=10;" parent="1" vertex="1">
                    <mxGeometry x="140" y="110" width="30" height="60" as="geometry"/>
                </mxCell>
                <mxCell id="25" value="" style="endArrow=none;dashed=1;html=1;dashPattern=1 3;strokeWidth=2;fontSize=10;" parent="1" edge="1">
                    <mxGeometry width="50" height="50" relative="1" as="geometry">
                        <mxPoint x="230" y="90" as="sourcePoint"/>
                        <mxPoint x="320" y="90" as="targetPoint"/>
                    </mxGeometry>
                </mxCell>
                <mxCell id="27" value="" style="endArrow=none;dashed=1;html=1;fontSize=10;entryX=0.144;entryY=1.014;entryDx=0;entryDy=0;entryPerimeter=0;exitX=0.144;exitY=-0.017;exitDx=0;exitDy=0;exitPerimeter=0;" parent="1" source="10" target="4" edge="1">
                    <mxGeometry width="50" height="50" relative="1" as="geometry">
                        <mxPoint x="340" y="385" as="sourcePoint"/>
                        <mxPoint x="340" y="335" as="targetPoint"/>
                    </mxGeometry>
                </mxCell>
                <mxCell id="28" value="" style="endArrow=none;dashed=1;html=1;fontSize=10;" parent="1" edge="1">
                    <mxGeometry width="50" height="50" relative="1" as="geometry">
                        <mxPoint x="480" y="459" as="sourcePoint"/>
                        <mxPoint x="568" y="459" as="targetPoint"/>
                    </mxGeometry>
                </mxCell>
                <mxCell id="29" value="Company: String (DefaultNotNull)&lt;br&gt;&lt;br&gt;Vendors : Object Ref (array of VendorIDS)&lt;br&gt;&lt;br&gt;Pending Orders: List of pending orders&amp;nbsp;&lt;br&gt;&lt;br&gt;Permissions: Enum Manager( Places Orders)&amp;nbsp;&lt;br&gt;Staff (Read Only)&lt;br&gt;Vendor: Accept/reject orders&lt;br&gt;&lt;br&gt;Staff ID # - Mongo DB Auto Generated&lt;br&gt;&lt;br&gt;&lt;br&gt;&lt;br&gt;" style="text;html=1;strokeColor=none;fillColor=none;align=center;verticalAlign=middle;whiteSpace=wrap;rounded=0;fontSize=10;" parent="1" vertex="1">
                    <mxGeometry x="95" y="200" width="120" height="250" as="geometry"/>
                </mxCell>
                <mxCell id="31" value="" style="endArrow=classic;html=1;fontSize=10;exitX=0.5;exitY=1;exitDx=0;exitDy=0;entryX=0;entryY=0.5;entryDx=0;entryDy=0;" parent="1" source="2" target="10" edge="1">
                    <mxGeometry width="50" height="50" relative="1" as="geometry">
                        <mxPoint x="150" y="510" as="sourcePoint"/>
                        <mxPoint x="200" y="460" as="targetPoint"/>
                        <Array as="points">
                            <mxPoint x="155" y="530"/>
                        </Array>
                    </mxGeometry>
                </mxCell>
                <mxCell id="33" value="&lt;i&gt;one to many&lt;/i&gt;" style="text;html=1;strokeColor=none;fillColor=none;align=center;verticalAlign=middle;whiteSpace=wrap;rounded=0;fontSize=10;" parent="1" vertex="1">
                    <mxGeometry x="200" y="510" width="70" height="20" as="geometry"/>
                </mxCell>
                <mxCell id="34" value="&lt;i&gt;many to many&lt;/i&gt;" style="text;html=1;strokeColor=none;fillColor=none;align=center;verticalAlign=middle;whiteSpace=wrap;rounded=0;fontSize=10;" parent="1" vertex="1">
                    <mxGeometry x="485" y="500" width="70" height="20" as="geometry"/>
                </mxCell>
                <mxCell id="36" value="Inventory List: ref# to a list of inventory items available to choose from -&lt;br&gt;need to add a way to check if inventory sold out&lt;br&gt;&lt;br&gt;DeliveryTIme: Time it takes from the order placed to the order delivered&lt;br&gt;&lt;br&gt;Companies: List - of companies this vendor does business with&amp;nbsp;" style="text;html=1;strokeColor=none;fillColor=none;align=center;verticalAlign=middle;whiteSpace=wrap;rounded=0;fontSize=10;" parent="1" vertex="1">
                    <mxGeometry x="335" y="470" width="130" height="150" as="geometry"/>
                </mxCell>
                <mxCell id="37" value="List of options for the vendor to pull from&amp;nbsp;&lt;br&gt;&lt;br&gt;Tracker to see if inventory gets sold out -&amp;nbsp;&lt;br&gt;&lt;br&gt;List of Vendors that supply that item." style="text;html=1;strokeColor=none;fillColor=none;align=center;verticalAlign=middle;whiteSpace=wrap;rounded=0;fontSize=10;" parent="1" vertex="1">
                    <mxGeometry x="585" y="455" width="120" height="150" as="geometry"/>
                </mxCell>
            </root>
        </mxGraphModel>
    </diagram>
</mxfile>